<svg width="56" height="58" viewBox="0 0 56 58" fill="none" xmlns="http://www.w3.org/2000/svg">
<path d="M28.0542 27.6396C27.748 32.2996 31.8277 33.4625 35.2071 37.8804C40.2313 44.2228 45.0514 43.211 46.3438 39.3152C47.5734 35.5707 43.8934 32.2689 44.1501 28.1203C44.4069 23.9717 48.6672 20.7769 47.9779 16.9445C47.2885 13.112 42.5901 11.8695 36.6566 17.9153C32.6381 22.097 28.4995 23.0374 28.0542 27.6396Z" fill="#827397"/>
<path d="M16.6897 23.4258C20.6986 25.0367 24.8036 24.3231 25.8701 21.96C26.9367 19.5969 24.5509 16.4142 20.5261 14.9475C16.5171 13.3366 12.4122 14.0502 11.3456 16.4132C10.295 18.6321 12.6807 21.8149 16.6897 23.4258Z" fill="#5F5B5B"/>
<path d="M26.1517 14.3514C28.6228 16.889 32.0255 17.2443 33.7136 15.2696C35.4017 13.2949 34.7523 9.67373 32.2157 7.26903C29.7447 4.73149 26.3419 4.37616 24.6538 6.35087C23.0312 8.19273 23.6806 11.8139 26.1517 14.3514Z" fill="#5F5B5B"/>
<path d="M16.0645 35.9356C20.2308 36.3455 23.9302 34.6226 24.2718 31.7952C24.5731 29.1103 21.4769 26.5409 17.1691 26.0909C13.0028 25.681 9.30337 27.404 8.9618 30.2314C8.66056 32.9163 11.8983 35.5257 16.0645 35.9356Z" fill="#5F5B5B"/>
<path d="M28.1277 47.1114C31.1478 45.0259 32.5888 41.5192 31.1354 39.0796C29.7399 36.7762 26.149 36.5302 23.0108 38.6658C19.9907 40.7513 18.5497 44.258 20.0031 46.6977C21.3986 49.001 25.1077 49.197 28.1277 47.1114Z" fill="#5F5B5B"/>
</svg>
